<svg width="16" height="16" viewBox="0 0 16 16" fill="none" xmlns="http://www.w3.org/2000/svg">
<path d="M8.00034 5.9356C8.14302 5.93519 8.27973 5.87833 8.38061 5.77744C8.4815 5.67656 8.53836 5.53984 8.53877 5.39717V4.85874C8.53877 4.71594 8.48204 4.57899 8.38107 4.47802C8.28009 4.37704 8.14314 4.32031 8.00034 4.32031C7.85754 4.32031 7.72059 4.37704 7.61962 4.47802C7.51864 4.57899 7.46191 4.71594 7.46191 4.85874V5.39717C7.46232 5.53984 7.51918 5.67656 7.62007 5.77744C7.72095 5.87833 7.85767 5.93519 8.00034 5.9356Z" fill="#1E1E1E"/>
<path d="M6.92319 8.08955H7.46162V11.1408C7.46162 11.2836 7.51835 11.4205 7.61932 11.5215C7.7203 11.6225 7.85725 11.6792 8.00005 11.6792C8.14285 11.6792 8.2798 11.6225 8.38077 11.5215C8.48175 11.4205 8.53848 11.2836 8.53848 11.1408V7.55112C8.53807 7.40845 8.48121 7.27174 8.38032 7.17085C8.27943 7.06996 8.14272 7.0131 8.00005 7.0127H6.92319C6.78039 7.0127 6.64344 7.06942 6.54247 7.1704C6.44149 7.27137 6.38477 7.40832 6.38477 7.55112C6.38477 7.69392 6.44149 7.83088 6.54247 7.93185C6.64344 8.03283 6.78039 8.08955 6.92319 8.08955Z" fill="#1E1E1E"/>
<path d="M8 15C9.38447 15 10.7378 14.5895 11.889 13.8203C13.0401 13.0511 13.9373 11.9579 14.4672 10.6788C14.997 9.3997 15.1356 7.99224 14.8655 6.63437C14.5954 5.2765 13.9287 4.02922 12.9497 3.05026C11.9708 2.07129 10.7235 1.4046 9.36563 1.13451C8.00776 0.86441 6.6003 1.00303 5.32121 1.53285C4.04213 2.06266 2.94888 2.95987 2.17971 4.11101C1.41054 5.26215 1 6.61553 1 8C1.00203 9.8559 1.74017 11.6352 3.05249 12.9475C4.3648 14.2598 6.1441 14.998 8 15ZM8 2.00473C9.18575 2.00473 10.3449 2.35635 11.3308 3.01512C12.3167 3.67388 13.0851 4.61022 13.5389 5.70571C13.9927 6.8012 14.1114 8.00665 13.8801 9.16962C13.6487 10.3326 13.0777 11.4008 12.2393 12.2393C11.4008 13.0778 10.3326 13.6487 9.16962 13.8801C8.00665 14.1114 6.8012 13.9927 5.70571 13.5389C4.61021 13.0851 3.67388 12.3167 3.01511 11.3308C2.35634 10.3449 2.00473 9.18575 2.00473 8C2.00593 6.41033 2.63796 4.88611 3.76203 3.76204C4.8861 2.63797 6.41032 2.00594 8 2.00473Z" fill="#1E1E1E"/>
</svg>
